# xmcd
#
# Track frame offsets:
#   150
#   21335
#   41942
#   63352
#   80087
#   100232
#   121092
#   136465
#   151157
#   169767
#   188135
#   203757
#   222197
#   241342
#   256125
#
# Disc length: 3570 seconds
#
# Revision: 0
# Processed by: cddbd v1.5.1PL2 Copyright (c) Steve Scherf et al.
# Submitted via: GXTranscoder 2.0.1939
#
DISCID=ce0df00f
DTITLE=Romantic Piano 5 - Romantic Piano 5
DYEAR=1900
DGENRE=Blues
TTITLE0=The One You Love
TTITLE1=Casablance
TTITLE2=Sailing
TTITLE3=Sometimes When We Touch
TTITLE4=Careless Whisper
TTITLE5=Send In The Clowns
TTITLE6=I Did Really Love To See You Tonight
TTITLE7=Tonight I Celebrate My Love
TTITLE8=That Is What Friends Are For
TTITLE9=Hello
TTITLE10=Always On My Mind
TTITLE11=Memory
TTITLE12=Do That To Me One More Time
TTITLE13=Stranger In The Night
TTITLE14=Think Of Laura
EXTD=
EXTT0=
EXTT1=
EXTT2=
EXTT3=
EXTT4=
EXTT5=
EXTT6=
EXTT7=
EXTT8=
EXTT9=
EXTT10=
EXTT11=
EXTT12=
EXTT13=
EXTT14=
PLAYORDER=
